ply
format ascii 1.0
element vertex 256
comment vertices
property float x
property float y
property float z
end_header
-0.354439109563827515 3.89745497703552246 -1.1242830753326416
0.191591501235961914 1.37073755264282227 -1.10519826412200928
1.2572329044342041 3.61884737014770508 -1.14229750633239746
1.25848293304443359 4.43448019027709961 -0.128928929567337036
-0.562843382358551025 4.89841747283935547 -0.348198741674423218
-1.06251788139343262 2.3920280933380127 -1.11518609523773193
0.387481123208999634 2.78222274780273438 -1.22787630558013916
-2.04808664321899414 2.84217596054077148 -0.484007447957992554
0.747806072235107422 4.63501453399658203 -0.448348641395568848
1.05038213729858398 2.7041623592376709 -1.04834532737731934
-0.378956407308578491 4.17182159423828125 -0.924253106117248535
0.708795726299285889 3.56622910499572754 -1.11570179462432861
-1.25618016719818115 4.14868545532226562 -0.448552370071411133
-1.75929749011993408 2.78083705902099609 -1.20772302150726318
0.932570219039916992 3.79872798919677734 -0.924906075000762939
-0.080506443977355957 2.60941767692565918 -1.12938165664672852
-0.402247428894042969 2.00751924514770508 -1.23421895503997803
0.39258912205696106 4.64628744125366211 -0.481421589851379395
0.0533245503902435303 4.7746129035949707 -0.334687918424606323
-1.00164413452148438 3.2677607536315918 -1.18950891494750977
0.699532628059387207 2.21384096145629883 -1.08379197120666504
1.26732933521270752 2.62510442733764648 -1.14657986164093018
1.06767237186431885 4.37057018280029297 -0.941781222820281982
-0.00940161943435668945 2.3382267951965332 -1.17631697654724121
-1.17367923259735107 3.74290823936462402 -1.12148213386535645
-0.989659488201141357 4.40588855743408203 -0.594914674758911133
0.685303032398223877 4.35317897796630859 -0.781267762184143066
0.0640921890735626221 2.86763882637023926 -1.16839230060577393
0.646248459815979004 3.32319307327270508 -1.14351403713226318
1.03230714797973633 3.64452886581420898 -0.508801817893981934
-0.0484742000699043274 2.8599543571472168 -1.15526938438415527
0.6998862624168396 2.16208338737487793 -1.09576380252838135
0.523959636688232422 4.67574787139892578 -0.747508525848388672
-1.13628149032592773 4.33265209197998047 -0.595465600490570068
0.163942247629165649 1.48022210597991943 -1.11694633960723877
-1.39243960380554199 3.16642332077026367 -1.07265698909759521
-1.79686963558197021 2.83235764503479004 -0.818985521793365479
-1.6138465404510498 3.75616073608398438 -0.570402622222900391
0.295115888118743896 4.38685178756713867 -0.653320848941802979
1.0055689811706543 4.28030586242675781 -0.879988729953765869
-1.07110846042633057 2.54737496376037598 -1.01008129119873047
1.10413360595703125 2.63661336898803711 -1.08212423324584961
-1.28730654716491699 3.82131290435791016 -1.05552494525909424
0.219025209546089172 2.76326656341552734 -1.19850599765777588
0.872576594352722168 3.78600287437438965 -0.74472731351852417
-0.373917639255523682 2.16112470626831055 -1.12367773056030273
0.412423789501190186 3.17814445495605469 -1.16699647903442383
0.578081727027893066 4.46856498718261719 -0.335760533809661865
-0.306282579898834229 2.2502596378326416 -1.20208680629730225
-0.217622473835945129 2.00916218757629395 -1.24584031105041504
0.990155935287475586 3.8053596019744873 -0.607288897037506104
-0.0485901832580566406 4.44595050811767578 -0.795238018035888672
-0.625985383987426758 4.34878921508789062 -0.859297990798950195
0.639854788780212402 3.28965067863464355 -1.23362469673156738
-1.04733681678771973 3.96445465087890625 -1.0416722297668457
0.988056778907775879 4.29925966262817383 -0.921657919883728027
0.817300856113433838 2.52650332450866699 -1.17135477066040039
0.900321006774902344 4.12893772125244141 -0.96010744571685791
0.67646491527557373 2.28358840942382812 -1.15578174591064453
0.569863557815551758 4.5233159065246582 -0.710707783699035645
-0.199566453695297241 4.63491344451904297 -0.581074535846710205
0.239830076694488525 1.43204176425933838 -1.06705152988433838
-1.0646660327911377 4.21401119232177734 -0.775098979473114014
-0.018759164959192276 4.85402488708496094 -0.27105829119682312
-1.18731427192687988 4.33274936676025391 -0.393214315176010132
0.137453734874725342 2.4256744384765625 -1.22053658962249756
-0.288002610206604004 3.87573146820068359 -1.11283349990844727
-0.0153074935078620911 2.73705315589904785 -1.14016461372375488
-1.21062636375427246 4.96055889129638672 -0.420569241046905518
-1.32073235511779785 2.97728347778320312 -1.08665978908538818
1.18049848079681396 2.64784336090087891 -1.05658364295959473
-1.4940340518951416 3.65019035339355469 -0.430217653512954712
1.39614319801330566 2.96104812622070312 -1.15689241886138916
1.38558793067932129 3.47261786460876465 -1.12316584587097168
0.0239152312278747559 2.8831484317779541 -1.1950066089630127
0.786090254783630371 4.04486656188964844 -1.02208590507507324
-1.49646127223968506 3.82334089279174805 -0.654100537300109863
-1.01690948009490967 3.3074038028717041 -1.09310460090637207
1.12031614780426025 2.63834381103515625 -1.0536496639251709
-0.1687602698802948 2.72064614295959473 -1.17158520221710205
0.875773012638092041 4.13156604766845703 -0.646376550197601318
-0.0270975977182388306 2.67264270782470703 -1.13383269309997559
-1.89984738826751709 3.39809036254882812 -0.452319592237472534
1.04969143867492676 4.07765865325927734 -0.408666074275970459
-1.19263815879821777 3.83772730827331543 -0.837471902370452881
-0.425849854946136475 2.47008562088012695 -1.14888834953308105
0.760249137878417969 3.54797267913818359 -1.10683679580688477
0.781014084815979004 4.52771854400634766 -0.488211333751678467
0.70374906063079834 4.72929048538208008 -0.140189856290817261
-1.07861614227294922 2.48610687255859375 -1.12523162364959717
0.861709773540496826 3.92466092109680176 -0.621941506862640381
-0.172684758901596069 2.04371428489685059 -1.22924518585205078
-0.920081138610839844 4.748779296875 -0.314378082752227783
0.33035433292388916 2.6556541919708252 -1.13825225830078125
0.685838460922241211 3.76551365852355957 -1.04285573959350586
0.509902298450469971 4.0669245719909668 -0.690011978149414062
0.01164969801902771 3.02486562728881836 -1.17002224922180176
-0.109166190028190613 2.1344761848449707 -1.21296012401580811
0.471159100532531738 4.56214761734008789 -0.674813628196716309
0.9200935959815979 4.10886621475219727 -1.0122368335723877
-1.26758360862731934 4.31125020980834961 -0.525328218936920166
1.42682433128356934 4.12191915512084961 -0.984608769416809082
0.665231406688690186 3.99194097518920898 -0.913547277450561523
1.01244664192199707 2.39179611206054688 -1.15403413772583008
0.745348870754241943 2.86206221580505371 -1.10499453544616699
0.214318424463272095 1.39958572387695312 -1.10128509998321533
0.685153782367706299 2.2021641731262207 -1.11588776111602783
-1.05690526962280273 2.44141793251037598 -1.03038358688354492
1.25548648834228516 4.19958353042602539 -1.03987312316894531
-0.493219345808029175 3.61727523803710938 -1.14692187309265137
0.00170542299747467041 4.01333713531494141 -0.876204848289489746
-2.2362358570098877 2.56155204772949219 -0.607458055019378662
-0.397734344005584717 4.49189138412475586 -0.860479891300201416
-1.0417933464050293 3.5963129997253418 -0.638759791851043701
0.916698098182678223 4.67312335968017578 -0.192154765129089355
-0.439620703458786011 2.03625822067260742 -1.12995719909667969
0.0961689949035644531 2.919158935546875 -1.12364232540130615
0.558494925498962402 4.48695755004882812 -0.653217434883117676
-1.08522319793701172 3.92255163192749023 -1.12633311748504639
-0.00156237930059432983 5.06967067718505859 -0.36114126443862915
-0.184805572032928467 2.3800046443939209 -1.13519155979156494
-0.735055863857269287 4.19983434677124023 -1.01790988445281982
-1.01361691951751709 4.38107109069824219 -0.632247805595397949
0.493941009044647217 2.28973555564880371 -1.12932145595550537
1.21984457969665527 4.39636659622192383 -0.836985170841217041
-1.09215390682220459 3.00995635986328125 -1.23704564571380615
-0.552368700504302979 1.98666179180145264 -1.14931643009185791
-0.798962235450744629 4.22557592391967773 -0.806052088737487793
0.476415812969207764 4.62486410140991211 -0.513967275619506836
-1.27951240539550781 3.66007876396179199 -1.10133695602416992
-0.413567721843719482 2.10500383377075195 -1.2090303897857666
0.682192385196685791 4.16081476211547852 -0.806911230087280273
-1.94037675857543945 2.98427271842956543 -0.56394881010055542
0.0608050078153610229 2.73169374465942383 -1.11631965637207031
0.735788941383361816 3.56181669235229492 -1.12527823448181152
0.440644651651382446 4.1277766227722168 -0.833290159702301025
0.0818245112895965576 2.73105049133300781 -1.20022261142730713
0.431587696075439453 4.14433526992797852 -0.682408273220062256
-0.391907185316085815 1.99279165267944336 -1.23721647262573242
0.0647622942924499512 4.84394073486328125 -0.284135162830352783
-0.0689372718334197998 2.71294283866882324 -1.18655478954315186
-1.03950417041778564 4.6105351448059082 -0.531006217002868652
-1.39514446258544922 3.43292784690856934 -1.00157880783081055
0.0841003060340881348 2.72809219360351562 -1.08095407485961914
-1.21956205368041992 4.03874683380126953 -0.829446315765380859
-0.16543927788734436 3.21251201629638672 -1.12540268898010254
-0.597402393817901611 4.52225399017333984 -0.512825965881347656
0.162833258509635925 1.59357404708862305 -1.06501221656799316
0.696814060211181641 2.2182924747467041 -1.0794675350189209
0.710253596305847168 4.785888671875 -0.40026015043258667
0.672230839729309082 2.38022899627685547 -1.17038190364837646
0.851478815078735352 4.23250055313110352 -0.940098404884338379
0.524065256118774414 4.34613752365112305 -0.589201807975769043
0.414176017045974731 2.55952906608581543 -1.19355058670043945
0.191636666655540466 1.40648758411407471 -1.13076877593994141
-1.1466526985168457 3.22468209266662598 -1.02607524394989014
-0.319131404161453247 3.89848232269287109 -1.07861447334289551
-1.33264768123626709 4.26681137084960938 -0.871739387512207031
-0.749725699424743652 4.74360132217407227 -0.484108924865722656
0.677902162075042725 2.20808839797973633 -1.06958794593811035
-0.308216780424118042 3.89272189140319824 -1.1241450309753418
-0.256274431943893433 2.33826684951782227 -1.12903237342834473
1.11283981800079346 2.65332603454589844 -1.0452125072479248
0.483206301927566528 4.8064727783203125 -0.348196923732757568
-1.0792616605758667 2.48002123832702637 -1.10244250297546387
0.981082916259765625 2.53049254417419434 -1.16128158569335938
1.16503703594207764 2.64229941368103027 -1.08825576305389404
0.236233189702033997 4.68707180023193359 -0.618073344230651855
1.20426511764526367 3.97559118270874023 -0.489041745662689209
-0.910659551620483398 4.51945829391479492 -0.568570911884307861
-1.04471111297607422 3.98059368133544922 -1.16164422035217285
-0.323456078767776489 2.06620931625366211 -1.23697781562805176
1.11823189258575439 3.63555765151977539 -0.569910824298858643
0.289296150207519531 4.36630105972290039 -0.798420965671539307
-0.914461195468902588 4.37889194488525391 -0.937712252140045166
0.639548361301422119 2.25012540817260742 -1.18740928173065186
0.421003818511962891 4.29152584075927734 -0.711185276508331299
0.682285487651824951 2.22843599319458008 -1.07918059825897217
-0.232446283102035522 2.47931885719299316 -1.14670562744140625
-0.00966311991214752197 2.78684473037719727 -1.17542970180511475
-0.980124294757843018 4.29779434204101562 -0.801206469535827637
-1.56604599952697754 2.82238364219665527 -1.02057075500488281
-0.118684172630310059 4.63155221939086914 -0.452034652233123779
0.723107397556304932 3.55117321014404297 -1.06854546070098877
-0.114925116300582886 2.48634195327758789 -1.13395893573760986
0.637079954147338867 3.78783893585205078 -0.828537344932556152
0.217609018087387085 2.8513038158416748 -1.16183030605316162
-0.00289827585220336914 2.56604456901550293 -1.15729105472564697
1.10037374496459961 4.46119022369384766 -0.873751342296600342
0.623585224151611328 2.62397527694702148 -1.12278091907501221
0.371622174978256226 4.26821756362915039 -0.651750504970550537
1.12918782234191895 2.64968132972717285 -1.0383603572845459
0.765342593193054199 4.65147781372070312 -0.425956755876541138
0.36955907940864563 4.93079757690429688 -0.0929868817329406738
0.838055312633514404 4.46034526824951172 -0.833463847637176514
-0.0810085535049438477 2.76286745071411133 -1.11814010143280029
-0.980379343032836914 4.20043563842773438 -0.784890413284301758
1.23064136505126953 3.21247267723083496 -1.15372633934020996
-0.827082037925720215 4.11975383758544922 -0.888894081115722656
0.0709240660071372986 1.37882709503173828 -1.15295052528381348
0.79515230655670166 4.00275564193725586 -0.707969009876251221
-0.871053695678710938 4.21417236328125 -0.540771126747131348
-1.33433449268341064 3.75096654891967773 -0.504635035991668701
-1.21383428573608398 4.25600433349609375 -0.377413183450698853
0.571881771087646484 4.62400674819946289 -0.543315529823303223
0.679795324802398682 2.98262500762939453 -1.17503762245178223
0.961075365543365479 3.81952953338623047 -0.561613917350769043
0.938815176486968994 4.13697290420532227 -0.993696093559265137
-0.648769021034240723 4.10185527801513672 -0.882531642913818359
0.646294772624969482 2.24130511283874512 -1.13038969039916992
-0.0386057645082473755 2.9069979190826416 -1.15240347385406494
-0.0827087610960006714 2.3509516716003418 -1.20862758159637451
-1.12699317932128906 3.52594852447509766 -1.01631879806518555
0.623725056648254395 4.17794561386108398 -1.00549173355102539
1.20984089374542236 2.65904927253723145 -1.13507461547851562
0.211268961429595947 1.45152139663696289 -1.09649169445037842
-0.122049309313297272 3.20472264289855957 -1.12964856624603271
0.735768914222717285 4.27095413208007812 -0.878324508666992188
-0.31366419792175293 2.05181622505187988 -1.20639026165008545
0.443085223436355591 4.29594612121582031 -0.719733476638793945
0.65376746654510498 4.04777097702026367 -0.984760880470275879
0.668502211570739746 4.37627840042114258 -0.385666728019714355
0.450914621353149414 4.26240348815917969 -0.787673056125640869
0.867560982704162598 3.9937431812286377 -0.642793893814086914
0.667846083641052246 4.46758890151977539 -0.592621982097625732
0.8550376296043396 3.60158967971801758 -1.09616613388061523
0.446316242218017578 4.41197490692138672 -0.782509207725524902
0.305706143379211426 3.04484701156616211 -1.09323024749755859
-0.0446176826953887939 2.89782571792602539 -1.18742609024047852
0.741413295269012451 4.41775608062744141 -0.722819089889526367
-0.0868565142154693604 2.21493673324584961 -1.20786464214324951
0.180529430508613586 1.39105665683746338 -1.09022152423858643
-1.36157524585723877 3.09973263740539551 -1.1716691255569458
0.743231296539306641 3.56745529174804688 -1.12345850467681885
0.87933802604675293 3.48652076721191406 -1.10609602928161621
0.679073333740234375 4.19183588027954102 -1.0117793083190918
-0.00255961716175079346 2.67582559585571289 -1.14538955688476562
-1.26485073566436768 4.19643735885620117 -0.975660860538482666
-1.09751224517822266 4.47583436965942383 -0.603572547435760498
-1.5342261791229248 3.45535802841186523 -0.478411853313446045
-1.23991906642913818 4.19112491607666016 -0.355176746845245361
0.219102263450622559 2.95731830596923828 -1.15198266506195068
-1.04878270626068115 2.50351834297180176 -1.09994542598724365
0.740064263343811035 4.75768709182739258 -0.44494253396987915
0.18726995587348938 2.74194216728210449 -1.18715929985046387
0.585277557373046875 4.55743694305419922 -0.611076891422271729
-1.18974411487579346 4.24651670455932617 -0.524221897125244141
-1.10768723487854004 3.32035446166992188 -1.23405718803405762
0.62429046630859375 2.2014470100402832 -1.15780031681060791
-1.06200230121612549 2.44501352310180664 -1.09511351585388184
0.689482569694519043 2.20525336265563965 -1.058349609375
-1.4024665355682373 3.66809535026550293 -0.78839719295501709
-0.236361891031265259 2.25624561309814453 -1.22092819213867188
-1.93435835838317871 2.96729707717895508 -0.516671478748321533
1.16099095344543457 2.61889863014221191 -1.09900450706481934
-1.77892088890075684 2.99821996688842773 -0.703747272491455078
