ply
format ascii 1.0
element vertex 256
comment vertices
property float x
property float y
property float z
end_header
-0.2973918616771698 3.90365910530090332 -1.08853304386138916
0.212371706962585449 1.36324942111968994 -1.12127017974853516
1.20338523387908936 3.66164016723632812 -1.12120592594146729
1.4512714147567749 4.22083663940429688 0.12797921895980835
-0.199358969926834106 4.57816410064697266 -0.355383306741714478
-1.0996783971786499 2.49265050888061523 -1.10970675945281982
0.343629628419876099 2.75789737701416016 -1.15620386600494385
-2.95292830467224121 1.04105627536773682 -1.01936078071594238
1.05408561229705811 4.17691183090209961 -0.556325197219848633
1.07769560813903809 2.65573835372924805 -1.05160796642303467
0.452333420515060425 2.9019923210144043 -1.11863350868225098
0.753862857818603516 3.53958415985107422 -1.10398542881011963
-1.35012936592102051 3.04747581481933594 -0.691850006580352783
-2.07698869705200195 2.68914794921875 -1.19368851184844971
0.830813288688659668 3.68564796447753906 -1.0159832239151001
-0.0289795733988285065 2.55731320381164551 -1.14867663383483887
-0.440685421228408813 1.93338334560394287 -1.21464705467224121
0.501901984214782715 4.20575237274169922 -0.537960231304168701
0.254599094390869141 4.67144155502319336 -0.210996076464653015
-0.565094113349914551 2.91813135147094727 -1.29950165748596191
0.673891663551330566 2.16578173637390137 -1.10373818874359131
1.16039514541625977 2.61853528022766113 -1.09006893634796143
1.00073719024658203 4.20602750778198242 -1.01517391204833984
-0.0646876171231269836 2.33814620971679688 -1.16218793392181396
-1.30484974384307861 3.3320014476776123 -1.14808344841003418
-1.09660553932189941 3.92779636383056641 -0.690979897975921631
0.681089282035827637 4.23664093017578125 -0.955237865447998047
0.0828396528959274292 2.82613492012023926 -1.16176915168762207
0.761060833930969238 3.5447838306427002 -1.11931097507476807
1.63577067852020264 1.76200807094573975 -1.10870158672332764
0.00562466681003570557 2.81977033615112305 -1.1548389196395874
0.67397838830947876 2.171234130859375 -1.10639810562133789
0.241467833518981934 4.501129150390625 -0.688210248947143555
-1.24702978134155273 3.64674043655395508 -0.705026507377624512
0.172216325998306274 1.39890861511230469 -1.11131381988525391
-1.52572214603424072 2.97948002815246582 -1.1453244686126709
-2.04489922523498535 1.81353938579559326 -1.03557157516479492
-1.67229866981506348 2.65624737739562988 -0.930545806884765625
-0.277836978435516357 3.3064274787902832 -1.01009798049926758
0.9569854736328125 4.15193605422973633 -0.986150145530700684
-1.08516132831573486 2.48503351211547852 -1.0493619441986084
1.10971546173095703 2.64117598533630371 -1.08150625228881836
-1.64653158187866211 3.42703008651733398 -1.15987205505371094
0.168685823678970337 2.74482345581054688 -1.16928958892822266
1.13203489780426025 2.21669983863830566 -1.22467327117919922
-0.41267848014831543 2.08713150024414062 -1.1507340669631958
0.426548659801483154 3.25042176246643066 -1.1184995174407959
0.83478391170501709 3.81780028343200684 -0.572313606739044189
-0.27991291880607605 2.18983554840087891 -1.20367920398712158
-0.241906553506851196 2.01018548011779785 -1.22138309478759766
1.62491822242736816 2.04889678955078125 -1.23003196716308594
-0.639586746692657471 3.00136828422546387 -1.18154776096343994
-0.779007852077484131 4.0353245735168457 -1.0050278902053833
0.754465699195861816 3.51518034934997559 -1.13480591773986816
-1.14044380187988281 3.79396295547485352 -1.09214425086975098
0.949469149112701416 4.16584587097167969 -0.984730899333953857
0.657449960708618164 2.37341809272766113 -1.12157833576202393
0.906309247016906738 4.10004901885986328 -1.01078128814697266
0.665264427661895752 2.18449711799621582 -1.12068462371826172
0.679433763027191162 4.35270500183105469 -0.85323333740234375
-0.189026355743408203 3.75420570373535156 -0.926864981651306152
0.209978044033050537 1.37480258941650391 -1.09890067577362061
-1.05811905860900879 3.57141685485839844 -1.03346216678619385
0.270824670791625977 4.65860223770141602 -0.106923878192901611
-1.23333144187927246 3.54284191131591797 -0.543534636497497559
0.0991390794515609741 2.45023250579833984 -1.18423581123352051
-0.285624653100967407 3.90377926826477051 -1.0901561975479126
0.0381067581474781036 2.7213435173034668 -1.12576711177825928
-2.55375266075134277 4.71349811553955078 -0.780765414237976074
-1.31867039203643799 1.87427794933319092 -1.25497150421142578
1.13119077682495117 2.6186985969543457 -1.06902718544006348
-1.29921245574951172 2.30683183670043945 -0.871825277805328369
1.56707966327667236 2.9468836784362793 -1.11864256858825684
1.46854722499847412 3.46404600143432617 -1.09335565567016602
0.0597730875015258789 2.84723186492919922 -1.17945170402526855
0.703787446022033691 3.94386887550354004 -1.03856873512268066
-1.92846465110778809 2.99304366111755371 -0.857425570487976074
-0.432292044162750244 2.36321902275085449 -1.28828632831573486
1.11682271957397461 2.63442015647888184 -1.06905615329742432
-0.0870417803525924683 2.70039176940917969 -1.15183436870574951
1.04240918159484863 3.86881875991821289 -0.92503511905670166
0.0241287089884281158 2.65454220771789551 -1.12261390686035156
-2.52435207366943359 1.73498809337615967 -0.861271798610687256
1.55386447906494141 3.25972318649291992 -0.758970379829406738
-1.38730001449584961 3.51312255859375 -1.01615285873413086
-0.456900060176849365 2.45713186264038086 -1.15413165092468262
0.739626049995422363 3.54791903495788574 -1.09730124473571777
1.46149194240570068 3.58436822891235352 -0.789968967437744141
0.90537714958190918 4.39058637619018555 -0.173233985900878906
-1.09954833984375 2.49668097496032715 -1.1060258150100708
1.36885738372802734 2.35343003273010254 -1.16945886611938477
-0.175451904535293579 2.05047392845153809 -1.21319615840911865
-0.755959272384643555 3.93608283996582031 -0.327857673168182373
0.292859435081481934 2.67488408088684082 -1.11402499675750732
0.76564788818359375 3.55512642860412598 -1.08999276161193848
0.385967433452606201 2.28934621810913086 -1.20046532154083252
0.0451135784387588501 2.98055529594421387 -1.16514706611633301
-0.104898281395435333 2.12763786315917969 -1.20258128643035889
0.558162868022918701 4.10414838790893555 -0.767981231212615967
0.907730519771575928 4.08314180374145508 -1.03689956665039062
-1.35050594806671143 3.37140917778015137 -0.70844346284866333
2.30057287216186523 3.63342809677124023 -1.1447451114654541
0.548377156257629395 3.66547870635986328 -1.07212162017822266
1.1266937255859375 2.59108066558837891 -1.07286882400512695
0.686637341976165771 2.85076045989990234 -1.07940852642059326
0.210069835186004639 1.36179828643798828 -1.11833834648132324
0.668414890766143799 2.17246723175048828 -1.11489987373352051
-1.09749138355255127 2.48956799507141113 -1.05405962467193604
1.3999180793762207 4.11530542373657227 -1.06701338291168213
-0.605645895004272461 3.59263062477111816 -1.14952206611633301
-0.481934845447540283 1.56063652038574219 -1.38827645778656006
-2.97521877288818359 -0.184160232543945312 -1.11622881889343262
-0.0494402647018432617 4.11613750457763672 -1.11777567863464355
-0.203000545501708984 1.21953392028808594 -1.20795679092407227
1.3082585334777832 4.2503352165222168 -0.174210384488105774
-0.498139262199401855 1.94064521789550781 -1.15872371196746826
0.103004597127437592 2.85976028442382812 -1.14729893207550049
0.900272846221923828 3.66613292694091797 -0.905971288681030273
-1.09006166458129883 3.61372756958007812 -1.13210427761077881
0.323569953441619873 4.77454471588134766 -0.0562009215354919434
-0.13772737979888916 2.34864091873168945 -1.14732217788696289
-0.815863251686096191 3.55578804016113281 -1.09671390056610107
-0.941162765026092529 3.63121509552001953 -0.842751264572143555
0.672235429286956787 2.18786931037902832 -1.09865736961364746
1.40519869327545166 4.30687665939331055 -0.955497324466705322
-0.445076704025268555 1.56521391868591309 -1.41790282726287842
-0.699971437454223633 1.85847151279449463 -1.15083944797515869
-0.790523350238800049 3.25685644149780273 -1.02009701728820801
0.481612414121627808 4.48058605194091797 -0.510215997695922852
-1.53483569622039795 3.21316099166870117 -1.16039586067199707
-0.404163151979446411 2.04023265838623047 -1.19979310035705566
0.66431427001953125 3.96022772789001465 -1.03772497177124023
-2.66594600677490234 1.36129605770111084 -1.04355645179748535
0.0842204838991165161 2.68899011611938477 -1.11845672130584717
0.748482823371887207 3.5441892147064209 -1.09788119792938232
0.343650102615356445 3.57514691352844238 -1.076987624168396
0.0917700827121734619 2.7037513256072998 -1.16620850563049316
0.621987640857696533 2.3831639289855957 -1.14815962314605713
-0.428480088710784912 1.92280149459838867 -1.2154698371887207
0.371374309062957764 4.65565156936645508 -0.0934827476739883423
0.00155238807201385498 2.69659805297851562 -1.16106033325195312
-0.988986015319824219 3.68950104713439941 -0.747278809547424316
-1.94683957099914551 2.88953876495361328 -1.11091601848602295
0.0963165238499641418 2.6853642463684082 -1.10185337066650391
-1.66614067554473877 3.68621349334716797 -1.04851245880126953
-0.243749499320983887 3.17893266677856445 -1.14581096172332764
-0.183385670185089111 3.27146434783935547 -0.923360884189605713
0.17285040020942688 1.46993172168731689 -1.07817208766937256
0.67319786548614502 2.1648099422454834 -1.10272574424743652
0.795584440231323242 4.73404598236083984 -0.408658772706985474
0.664947330951690674 2.19421267509460449 -1.10317146778106689
0.905894041061401367 4.13970470428466797 -1.00618815422058105
1.04328811168670654 3.22345447540283203 -0.972884833812713623
0.366271555423736572 2.58232212066650391 -1.12254595756530762
0.207693010568618774 1.37003707885742188 -1.13038754463195801
-1.07044684886932373 2.50418305397033691 -1.24836015701293945
-0.287891030311584473 3.90768289566040039 -1.06872856616973877
-2.06142783164978027 4.00348186492919922 -1.00784444808959961
-0.523177444934844971 4.41164970397949219 -0.538729846477508545
0.667078793048858643 2.16557455062866211 -1.1012568473815918
-0.287309736013412476 3.90060067176818848 -1.09364306926727295
-0.205520719289779663 2.30648064613342285 -1.15226542949676514
1.10586559772491455 2.63029026985168457 -1.06045722961425781
0.414360880851745605 4.58160018920898438 -0.260149002075195312
-1.09960281848907471 2.49630188941955566 -1.09637141227722168
1.1128697395324707 2.67038631439208984 -1.09238100051879883
1.12766122817993164 2.62062954902648926 -1.080810546875
0.494094729423522949 4.32335329055786133 -0.685370147228240967
1.9792182445526123 2.97173833847045898 -0.879127621650695801
-0.637655138969421387 3.5955502986907959 -0.827252984046936035
-0.999161064624786377 3.82199716567993164 -1.123618483543396
-0.350117206573486328 2.01018381118774414 -1.21801269054412842
1.97854900360107422 1.8954465389251709 -1.13367581367492676
-0.272955119609832764 3.36607170104980469 -1.00695645809173584
-1.11738729476928711 4.28899240493774414 -1.0322566032409668
0.655526399612426758 2.1842193603515625 -1.13406360149383545
0.278351485729217529 2.84810209274291992 -1.0971379280090332
0.668235599994659424 2.16486573219299316 -1.10400664806365967
-0.157220155000686646 2.4459228515625 -1.15762221813201904
0.036488555371761322 2.76547122001647949 -1.15864098072052002
-1.15652871131896973 3.38390493392944336 -1.00730443000793457
-1.7017982006072998 2.61662387847900391 -1.11607658863067627
0.390017032623291016 3.67473173141479492 -0.808880984783172607
0.761075913906097412 3.53729963302612305 -1.105094313621521
-0.0788158997893333435 2.45137596130371094 -1.15248358249664307
0.320582658052444458 2.9235682487487793 -1.06543576717376709
0.169292375445365906 2.83255362510681152 -1.16810274124145508
0.00301491562277078629 2.54866480827331543 -1.1553657054901123
1.22445523738861084 4.35281133651733398 -0.970791935920715332
0.541645526885986328 2.6237027645111084 -1.11974287033081055
0.0795195698738098145 2.56529378890991211 -1.13541698455810547
1.11185133457183838 2.62729787826538086 -1.05871951580047607
0.970094799995422363 4.31761074066162109 -0.533535122871398926
0.356582134962081909 4.69402360916137695 0.232935100793838501
0.881870687007904053 4.31524944305419922 -0.936530470848083496
-0.0127909183502197266 2.73943233489990234 -1.1156691312789917
-0.901687502861022949 3.20723962783813477 -0.974365472793579102
1.28337633609771729 3.18194770812988281 -1.11165761947631836
-0.962883293628692627 2.81955838203430176 -1.1101078987121582
0.186798095703125 1.38863706588745117 -1.12959980964660645
1.07363259792327881 3.36815857887268066 -1.10094308853149414
-0.475371628999710083 2.81877994537353516 -0.890030503273010254
-1.12001192569732666 2.36685895919799805 -0.813224554061889648
-1.2386317253112793 3.29190278053283691 -0.540446162223815918
0.502489924430847168 4.56301450729370117 -0.539404392242431641
0.627740979194641113 3.02850008010864258 -1.13267242908477783
1.58282375335693359 2.1659541130065918 -1.1497199535369873
0.91749197244644165 4.10807037353515625 -1.02897405624389648
-0.477546721696853638 2.66076755523681641 -1.16693651676177979
0.660096287727355957 2.17286443710327148 -1.12334966659545898
0.0173356682062149048 2.85862302780151367 -1.15890192985534668
-0.0945981070399284363 2.34403681755065918 -1.18443846702575684
-1.09144508838653564 2.76977825164794922 -1.14350569248199463
0.505092263221740723 3.99608373641967773 -1.12684798240661621
1.14372575283050537 2.62515807151794434 -1.09419727325439453
0.194261133670806885 1.38175296783447266 -1.10612607002258301
-0.136524319648742676 3.18970489501953125 -1.16099774837493896
0.885842978954315186 4.16024541854858398 -1.00931084156036377
-0.339679300785064697 1.99886226654052734 -1.19889950752258301
0.221974402666091919 3.20787620544433594 -1.04618573188781738
0.61331939697265625 3.89234685897827148 -1.05064177513122559
0.946151494979858398 3.28388166427612305 -0.712523043155670166
0.274608820676803589 3.37793064117431641 -1.0922626256942749
1.3623126745223999 2.23902034759521484 -1.12483584880828857
0.778998732566833496 4.18447399139404297 -0.767055153846740723
0.726346254348754883 3.55357193946838379 -1.09890592098236084
0.505916714668273926 3.74219632148742676 -0.999394476413726807
0.276258170604705811 3.0602726936340332 -1.10924506187438965
0.0101786702871322632 2.85457587242126465 -1.17500853538513184
0.8347281813621521 4.26945877075195312 -0.848602533340454102
-0.0797425433993339539 2.19678997993469238 -1.20086991786956787
0.204843878746032715 1.36681914329528809 -1.11169397830963135
-1.60721743106842041 2.59902644157409668 -1.24032270908355713
0.749387204647064209 3.54352045059204102 -1.09854364395141602
0.695535480976104736 3.57000589370727539 -1.09743010997772217
0.654788672924041748 4.07136774063110352 -1.03701996803283691
0.031391289085149765 2.61728096008300781 -1.1593167781829834
-1.76149427890777588 4.0935053825378418 -1.07104182243347168
-1.16331171989440918 3.87166500091552734 -0.762282848358154297
-0.861185431480407715 1.01797032356262207 -1.14466619491577148
-1.3425447940826416 2.95363807678222656 -0.617249965667724609
0.230030611157417297 2.91355299949645996 -1.16989552974700928
-1.10187709331512451 2.49858355522155762 -1.09198808670043945
1.57859241962432861 4.32011270523071289 -0.622733116149902344
0.156305059790611267 2.72978115081787109 -1.16268789768218994
0.567548811435699463 4.38261699676513672 -0.66624826192855835
-1.31900787353515625 3.22283029556274414 -0.705368101596832275
-0.896771430969238281 3.07410430908203125 -1.28681671619415283
0.663923442363739014 2.18636608123779297 -1.1275407075881958
-1.09849786758422852 2.4961707592010498 -1.09495174884796143
0.670881927013397217 2.16414594650268555 -1.09631991386413574
-1.78059375286102295 2.27028131484985352 -1.05825459957122803
-0.206162706017494202 2.22905111312866211 -1.20453691482543945
-2.56208896636962891 1.19698286056518555 -1.0231626033782959
1.13042771816253662 2.63654232025146484 -1.08582830429077148
-2.00513815879821777 2.16181087493896484 -0.963790774345397949
