ply
format ascii 1.0
element vertex 120
comment vertices
property float x
property float y
property float z
end_header
-0.2973918616771698 3.90365910530090332 -1.08853304386138916
0.212371706962585449 1.36324942111968994 -1.12127017974853516
-1.0996783971786499 2.49265050888061523 -1.10970675945281982
0.343629628419876099 2.75789737701416016 -1.15620386600494385
1.07769560813903809 2.65573835372924805 -1.05160796642303467
0.753862857818603516 3.53958415985107422 -1.10398542881011963
-0.0289795733988285065 2.55731320381164551 -1.14867663383483887
-0.440685421228408813 1.93338334560394287 -1.21464705467224121
0.673891663551330566 2.16578173637390137 -1.10373818874359131
1.16039514541625977 2.61853528022766113 -1.09006893634796143
-0.0646876171231269836 2.33814620971679688 -1.16218793392181396
0.0828396528959274292 2.82613492012023926 -1.16176915168762207
0.761060833930969238 3.5447838306427002 -1.11931097507476807
0.00562466681003570557 2.81977033615112305 -1.1548389196395874
0.67397838830947876 2.171234130859375 -1.10639810562133789
0.172216325998306274 1.39890861511230469 -1.11131381988525391
0.9569854736328125 4.15193605422973633 -0.986150145530700684
-1.08516132831573486 2.48503351211547852 -1.0493619441986084
1.10971546173095703 2.64117598533630371 -1.08150625228881836
0.168685823678970337 2.74482345581054688 -1.16928958892822266
-0.41267848014831543 2.08713150024414062 -1.1507340669631958
0.426548659801483154 3.25042176246643066 -1.1184995174407959
-0.27991291880607605 2.18983554840087891 -1.20367920398712158
-0.241906553506851196 2.01018548011779785 -1.22138309478759766
0.754465699195861816 3.51518034934997559 -1.13480591773986816
0.949469149112701416 4.16584587097167969 -0.984730899333953857
0.657449960708618164 2.37341809272766113 -1.12157833576202393
0.906309247016906738 4.10004901885986328 -1.01078128814697266
0.665264427661895752 2.18449711799621582 -1.12068462371826172
0.209978044033050537 1.37480258941650391 -1.09890067577362061
0.0991390794515609741 2.45023250579833984 -1.18423581123352051
-0.285624653100967407 3.90377926826477051 -1.0901561975479126
0.0381067581474781036 2.7213435173034668 -1.12576711177825928
1.13119077682495117 2.6186985969543457 -1.06902718544006348
0.0597730875015258789 2.84723186492919922 -1.17945170402526855
0.703787446022033691 3.94386887550354004 -1.03856873512268066
1.11682271957397461 2.63442015647888184 -1.06905615329742432
-0.0870417803525924683 2.70039176940917969 -1.15183436870574951
0.0241287089884281158 2.65454220771789551 -1.12261390686035156
-0.456900060176849365 2.45713186264038086 -1.15413165092468262
0.739626049995422363 3.54791903495788574 -1.09730124473571777
-1.09954833984375 2.49668097496032715 -1.1060258150100708
-0.175451904535293579 2.05047392845153809 -1.21319615840911865
0.292859435081481934 2.67488408088684082 -1.11402499675750732
0.76564788818359375 3.55512642860412598 -1.08999276161193848
0.0451135784387588501 2.98055529594421387 -1.16514706611633301
-0.104898281395435333 2.12763786315917969 -1.20258128643035889
1.1266937255859375 2.59108066558837891 -1.07286882400512695
0.686637341976165771 2.85076045989990234 -1.07940852642059326
0.210069835186004639 1.36179828643798828 -1.11833834648132324
0.668414890766143799 2.17246723175048828 -1.11489987373352051
-1.09749138355255127 2.48956799507141113 -1.05405962467193604
-0.605645895004272461 3.59263062477111816 -1.14952206611633301
-0.498139262199401855 1.94064521789550781 -1.15872371196746826
0.103004597127437592 2.85976028442382812 -1.14729893207550049
-0.13772737979888916 2.34864091873168945 -1.14732217788696289
0.672235429286956787 2.18786931037902832 -1.09865736961364746
-0.699971437454223633 1.85847151279449463 -1.15083944797515869
-0.404163151979446411 2.04023265838623047 -1.19979310035705566
0.0842204838991165161 2.68899011611938477 -1.11845672130584717
0.748482823371887207 3.5441892147064209 -1.09788119792938232
0.0917700827121734619 2.7037513256072998 -1.16620850563049316
-0.428480088710784912 1.92280149459838867 -1.2154698371887207
0.00155238807201385498 2.69659805297851562 -1.16106033325195312
0.0963165238499641418 2.6853642463684082 -1.10185337066650391
-0.243749499320983887 3.17893266677856445 -1.14581096172332764
0.17285040020942688 1.46993172168731689 -1.07817208766937256
0.67319786548614502 2.1648099422454834 -1.10272574424743652
0.664947330951690674 2.19421267509460449 -1.10317146778106689
0.905894041061401367 4.13970470428466797 -1.00618815422058105
0.366271555423736572 2.58232212066650391 -1.12254595756530762
0.207693010568618774 1.37003707885742188 -1.13038754463195801
-0.287891030311584473 3.90768289566040039 -1.06872856616973877
0.667078793048858643 2.16557455062866211 -1.1012568473815918
-0.287309736013412476 3.90060067176818848 -1.09364306926727295
-0.205520719289779663 2.30648064613342285 -1.15226542949676514
1.10586559772491455 2.63029026985168457 -1.06045722961425781
-1.09960281848907471 2.49630188941955566 -1.09637141227722168
1.1128697395324707 2.67038631439208984 -1.09238100051879883
1.12766122817993164 2.62062954902648926 -1.080810546875
-0.350117206573486328 2.01018381118774414 -1.21801269054412842
0.655526399612426758 2.1842193603515625 -1.13406360149383545
0.668235599994659424 2.16486573219299316 -1.10400664806365967
-0.157220155000686646 2.4459228515625 -1.15762221813201904
0.036488555371761322 2.76547122001647949 -1.15864098072052002
0.761075913906097412 3.53729963302612305 -1.105094313621521
-0.0788158997893333435 2.45137596130371094 -1.15248358249664307
0.169292375445365906 2.83255362510681152 -1.16810274124145508
0.00301491562277078629 2.54866480827331543 -1.1553657054901123
0.541645526885986328 2.6237027645111084 -1.11974287033081055
1.11185133457183838 2.62729787826538086 -1.05871951580047607
-0.0127909183502197266 2.73943233489990234 -1.1156691312789917
0.186798095703125 1.38863706588745117 -1.12959980964660645
0.627740979194641113 3.02850008010864258 -1.13267242908477783
0.660096287727355957 2.17286443710327148 -1.12334966659545898
0.0173356682062149048 2.85862302780151367 -1.15890192985534668
-0.0945981070399284363 2.34403681755065918 -1.18443846702575684
1.14372575283050537 2.62515807151794434 -1.09419727325439453
0.194261133670806885 1.38175296783447266 -1.10612607002258301
-0.136524319648742676 3.18970489501953125 -1.16099774837493896
0.885842978954315186 4.16024541854858398 -1.00931084156036377
-0.339679300785064697 1.99886226654052734 -1.19889950752258301
0.61331939697265625 3.89234685897827148 -1.05064177513122559
0.726346254348754883 3.55357193946838379 -1.09890592098236084
0.276258170604705811 3.0602726936340332 -1.10924506187438965
0.0101786702871322632 2.85457587242126465 -1.17500853538513184
-0.0797425433993339539 2.19678997993469238 -1.20086991786956787
0.204843878746032715 1.36681914329528809 -1.11169397830963135
0.749387204647064209 3.54352045059204102 -1.09854364395141602
0.695535480976104736 3.57000589370727539 -1.09743010997772217
0.654788672924041748 4.07136774063110352 -1.03701996803283691
0.031391289085149765 2.61728096008300781 -1.1593167781829834
0.230030611157417297 2.91355299949645996 -1.16989552974700928
-1.10187709331512451 2.49858355522155762 -1.09198808670043945
0.156305059790611267 2.72978115081787109 -1.16268789768218994
0.663923442363739014 2.18636608123779297 -1.1275407075881958
-1.09849786758422852 2.4961707592010498 -1.09495174884796143
0.670881927013397217 2.16414594650268555 -1.09631991386413574
-0.206162706017494202 2.22905111312866211 -1.20453691482543945
1.13042771816253662 2.63654232025146484 -1.08582830429077148
