ply
format ascii 1.0
element vertex 25
comment vertices
property float x
property float y
property float z
end_header
0.713231801986694336 1.52665472030639648 -0.311147838830947876
0.0250717662274837494 0.853579103946685791 -0.479032546281814575
0.692638218402862549 1.59914326667785645 -0.324034959077835083
0.0422891229391098022 0.982061147689819336 -0.467122733592987061
0.701293110847473145 1.61090505123138428 -0.325781971216201782
0.699154257774353027 1.6138007640838623 -0.324287980794906616
0.067648470401763916 0.972456276416778564 -0.494109809398651123
0.654106616973876953 1.56065797805786133 -0.307644426822662354
0.0770787447690963745 0.964848518371582031 -0.505564093589782715
0.703472137451171875 1.57049322128295898 -0.315645694732666016
0.698021054267883301 1.60587334632873535 -0.320794522762298584
-0.460503339767456055 0.538490891456604004 -0.454235285520553589
0.688480079174041748 1.59959983825683594 -0.320918738842010498
0.691666305065155029 1.57930803298950195 -0.334219783544540405
0.0595159977674484253 1.01343286037445068 -0.454223155975341797
0.105881243944168091 0.887270569801330566 -0.425772935152053833
0.69464951753616333 1.60237038135528564 -0.324966341257095337
0.777356803417205811 1.60787284374237061 -0.367928266525268555
0.0683484077453613281 0.971094667911529541 -0.497740387916564941
0.699488639831542969 1.61192226409912109 -0.319072902202606201
0.682878971099853516 1.60062336921691895 -0.311287671327590942
0.0695101320743560791 1.03496456146240234 -0.487318307161331177
0.038763243705034256 0.988163173198699951 -0.516121208667755127
0.729641199111938477 1.53981161117553711 -0.321297526359558105
0.143795907497406006 1.05643928050994873 -0.473891377449035645
